# xmcd CD database file
#
# Track frame offsets:
#	150
#	14684
#	34489
#
# Disc length: 796 seconds
#
# Revision: 0
# Processed by: cddbd v1.5.1PL2 Copyright (c) Steve Scherf et al.
# Submitted via: CDex 1.51
#
DISCID=23031a03
DTITLE=Sugar - mental sketch modified
DYEAR=2004
DGENRE=visual rock
TTITLE0=惡ノ華咲ク、夢ノ又夢
TTITLE1=咎人の空（mental sketch modified）
TTITLE2=独白
EXTD=YEAR: 2004
EXTT0=
EXTT1=
EXTT2=
PLAYORDER=
